{
    "asset" : {
        "generator" : "Khronos glTF Blender I/O v1.6.16",
        "version" : "2.0"
    },
    "scene" : 0,
    "scenes" : [
        {
            "name" : "Scene",
            "nodes" : [
                0
            ]
        }
    ],
    "nodes" : [
        {
            "mesh" : 0,
            "name" : "Legal Pad",
            "translation" : [
                0,
                -0.00019932894792873412,
                0
            ]
        }
    ],
    "materials" : [
        {
            "doubleSided" : true,
            "name" : "Legal Pad.001",
            "pbrMetallicRoughness" : {
                "baseColorTexture" : {
                    "index" : 0
                },
                "metallicFactor" : 0,
                "roughnessFactor" : 0.9290909171104431
            }
        }
    ],
    "meshes" : [
        {
            "name" : "Legal Pad.001",
            "primitives" : [
                {
                    "attributes" : {
                        "POSITION" : 0,
                        "NORMAL" : 1,
                        "TEXCOORD_0" : 2
                    },
                    "indices" : 3,
                    "material" : 0
                }
            ]
        }
    ],
    "textures" : [
        {
            "sampler" : 0,
            "source" : 0
        }
    ],
    "images" : [
        {
            "bufferView" : 4,
            "mimeType" : "image/png",
            "name" : "Baked_Legal_Col_02"
        }
    ],
    "accessors" : [
        {
            "bufferView" : 0,
            "componentType" : 5126,
            "count" : 231,
            "max" : [
                1,
                0.08698907494544983,
                1.4042181968688965
            ],
            "min" : [
                -1,
                0.00020487233996391296,
                -1.4042181968688965
            ],
            "type" : "VEC3"
        },
        {
            "bufferView" : 1,
            "componentType" : 5126,
            "count" : 231,
            "type" : "VEC3"
        },
        {
            "bufferView" : 2,
            "componentType" : 5126,
            "count" : 231,
            "type" : "VEC2"
        },
        {
            "bufferView" : 3,
            "componentType" : 5123,
            "count" : 636,
            "type" : "SCALAR"
        }
    ],
    "bufferViews" : [
        {
            "buffer" : 0,
            "byteLength" : 2772,
            "byteOffset" : 0
        },
        {
            "buffer" : 0,
            "byteLength" : 2772,
            "byteOffset" : 2772
        },
        {
            "buffer" : 0,
            "byteLength" : 1848,
            "byteOffset" : 5544
        },
        {
            "buffer" : 0,
            "byteLength" : 1272,
            "byteOffset" : 7392
        },
        {
            "buffer" : 0,
            "byteLength" : 543866,
            "byteOffset" : 8664
        }
    ],
    "samplers" : [
        {
            "magFilter" : 9729,
            "minFilter" : 9987
        }
    ],
    "buffers" : [
        {
            "byteLength" : 552532,
            "uri" : "data:application/octet-stream;base64,"
        }
    ]
}
